<?xml version="1.0" encoding="UTF-8"?>
<svg width="62px" height="61px" viewBox="0 0 62 61" version="1.1" xmlns="http://www.w3.org/2000/svg" xmlns:xlink="http://www.w3.org/1999/xlink">
    <!-- Generator: Sketch 51.2 (57519) - http://www.bohemiancoding.com/sketch -->
    <title>Arrow</title>
    <desc>Created with Sketch.</desc>
    <defs>
        <filter x="-4.4%" y="-2.9%" width="108.9%" height="107.5%" filterUnits="objectBoundingBox" id="filter-1">
            <feOffset dx="0" dy="3" in="SourceAlpha" result="shadowOffsetOuter1"></feOffset>
            <feGaussianBlur stdDeviation="4" in="shadowOffsetOuter1" result="shadowBlurOuter1"></feGaussianBlur>
            <feColorMatrix values="0 0 0 0 0   0 0 0 0 0   0 0 0 0 0  0 0 0 0.178328804 0" type="matrix" in="shadowBlurOuter1" result="shadowMatrixOuter1"></feColorMatrix>
            <feMerge>
                <feMergeNode in="shadowMatrixOuter1"></feMergeNode>
                <feMergeNode in="SourceGraphic"></feMergeNode>
            </feMerge>
        </filter>
    </defs>
    <g id="Internals" stroke="none" stroke-width="1" fill="none" fill-rule="evenodd">
        <g id="0_3_0-HOMEPAGE_REF" transform="translate(-801.000000, -4460.000000)">
            <g id="11-NEWS" transform="translate(126.000000, 4045.000000)">
                <g id="07---Latest-posts" transform="translate(0.000000, 84.000000)">
                    <g id="Group-7">
                        <g id="Group-5" transform="translate(0.000000, 39.000000)">
                            <g id="Group-12">
                                <g id="MORE-BLOG" filter="url(#filter-1)" transform="translate(658.933333, 0.933333)">
                                    <g id="Arrow" transform="translate(26.133333, 297.733333)">
                                        <g id="Group-8" transform="translate(7.560000, 8.400000)" fill="#EF3124">
                                            <path d="M28.3210132,6.2427369 C29.0701852,5.41441411 29.8193459,5.39715765 30.5685178,6.19096698 C31.3176898,6.98477632 31.3176898,7.76131728 30.5685178,8.52061317 L19.9439507,19.2887555 C19.6715245,19.63389 19.2969442,19.8064547 18.8201984,19.8064547 C18.3434526,19.8064547 17.9688723,19.63389 17.6964461,19.2887555 L7.07187896,8.52061317 C6.32270701,7.76131728 6.32270701,6.98477632 7.07187896,6.19096698 C7.8210509,5.39715765 8.5702116,5.41441411 9.31938354,6.2427369 L18.8201984,15.7684013 L28.3210132,6.2427369 Z" id="Mask" transform="translate(18.820198, 12.707366) rotate(-90.000000) translate(-18.820198, -12.707366) "></path>
                                            <rect id="Rectangle-11" x="0" y="11.0845946" width="23.436" height="3.16702703" rx="1.58351351"></rect>
                                        </g>
                                        <circle id="Oval-2" stroke="#EF3124" stroke-width="3.36" cx="21" cy="21" r="21"></circle>
                                    </g>
                                </g>
                            </g>
                        </g>
                    </g>
                </g>
            </g>
        </g>
    </g>
</svg>