<?xml version="1.0" encoding="UTF-8"?>
<svg width="46px" height="46px" viewBox="0 0 46 46" version="1.1" xmlns="http://www.w3.org/2000/svg" xmlns:xlink="http://www.w3.org/1999/xlink">
    <!-- Generator: Sketch 51.2 (57519) - http://www.bohemiancoding.com/sketch -->
    <title>Arrow</title>
    <desc>Created with Sketch.</desc>
    <defs></defs>
    <g id="Page-1" stroke="none" stroke-width="1" fill="none" fill-rule="evenodd">
        <g id="Arrow" fill="#EF3124">
            <g id="Group-8" transform="translate(9.560000, 10.400000)">
                <path d="M28.3210132,6.2427369 C29.0701852,5.41441411 29.8193459,5.39715765 30.5685178,6.19096698 C31.3176898,6.98477632 31.3176898,7.76131728 30.5685178,8.52061317 L19.9439507,19.2887555 C19.6715245,19.63389 19.2969442,19.8064547 18.8201984,19.8064547 C18.3434526,19.8064547 17.9688723,19.63389 17.6964461,19.2887555 L7.07187896,8.52061317 C6.32270701,7.76131728 6.32270701,6.98477632 7.07187896,6.19096698 C7.8210509,5.39715765 8.5702116,5.41441411 9.31938354,6.2427369 L18.8201984,15.7684013 L28.3210132,6.2427369 Z" id="Mask" transform="translate(18.820198, 12.707366) rotate(-90.000000) translate(-18.820198, -12.707366) "></path>
                <rect id="Rectangle-11" x="0" y="11.0845946" width="23.436" height="3.16702703" rx="1.58351351"></rect>
            </g>
            <path d="M23,45.68 C10.4741819,45.68 0.32,35.5258181 0.32,23 C0.32,10.4741819 10.4741819,0.32 23,0.32 C35.5258181,0.32 45.68,10.4741819 45.68,23 C45.68,35.5258181 35.5258181,45.68 23,45.68 Z M23,42.32 C33.6701414,42.32 42.32,33.6701414 42.32,23 C42.32,12.3298586 33.6701414,3.68 23,3.68 C12.3298586,3.68 3.68,12.3298586 3.68,23 C3.68,33.6701414 12.3298586,42.32 23,42.32 Z" id="Oval-2" fill-rule="nonzero"></path>
        </g>
    </g>
</svg>