<?xml version="1.0" encoding="UTF-8"?>
<svg width="19px" height="19px" viewBox="0 0 19 19" version="1.1" xmlns="http://www.w3.org/2000/svg" xmlns:xlink="http://www.w3.org/1999/xlink">
    <!-- Generator: Sketch 51.2 (57519) - http://www.bohemiancoding.com/sketch -->
    <title>Icon Copy</title>
    <desc>Created with Sketch.</desc>
    <defs></defs>
    <g id="Mobile---Homepage-+-Internals" stroke="none" stroke-width="1" fill="none" fill-rule="evenodd" opacity="0.400000006">
        <g id="01_small-Mobile-Homepage---Search" transform="translate(-277.000000, -34.000000)" fill="#FFFFFF">
            <g id="Group-11">
                <path d="M284.472652,43.1962247 L277.360201,36.0837738 C276.882697,35.6062698 276.87812,34.8366597 277.35739,34.3573899 C277.833341,33.8814385 278.60484,33.881267 279.083774,34.3602011 L286.196225,41.4726519 L293.308676,34.3602011 C293.78618,33.882697 294.55579,33.8781202 295.035059,34.3573899 C295.511011,34.8333414 295.511182,35.6048397 295.032248,36.0837738 L287.919797,43.1962247 L295.032248,50.3086756 C295.509752,50.7861796 295.514329,51.5557897 295.035059,52.0350595 C294.559108,52.511011 293.78761,52.5111824 293.308676,52.0322483 L286.196225,44.9197975 L279.083774,52.0322483 C278.60627,52.5097524 277.83666,52.5143292 277.35739,52.0350595 C276.881438,51.559108 276.881267,50.7876097 277.360201,50.3086756 L284.472652,43.1962247 Z" id="Icon-Copy"></path>
            </g>
        </g>
    </g>
</svg>