<?xml version="1.0" encoding="UTF-8"?>
<svg width="20px" height="20px" viewBox="0 0 20 20" version="1.1" xmlns="http://www.w3.org/2000/svg" xmlns:xlink="http://www.w3.org/1999/xlink">
    <!-- Generator: Sketch 51.2 (57519) - http://www.bohemiancoding.com/sketch -->
    <title>Mask</title>
    <desc>Created with Sketch.</desc>
    <defs></defs>
    <g id="Symbols" stroke="none" stroke-width="1" fill="none" fill-rule="evenodd">
        <g id="3_0-Footer" transform="translate(-131.000000, -164.000000)" fill="#2B2F45" fill-rule="nonzero">
            <g id="Footer">
                <g id="SOCIAL" transform="translate(123.000000, 156.000000)">
                    <g id="Group-17">
                        <path d="M26.8061752,8.47058824 L9.24701374,8.47058824 C8.82893847,8.47058824 8.47058824,8.82794118 8.47058824,9.24485294 L8.47058824,26.6955882 C8.47058824,27.1720588 8.82893847,27.5294118 9.24701374,27.5294118 L18.6238449,27.5294118 L18.6238449,20.3823529 L16.2348433,20.3823529 L16.2348433,17.4044118 L18.6238449,17.4044118 L18.6238449,15.0220588 C18.6238449,12.5801471 20.1766959,11.3294118 22.3865223,11.3294118 C23.461573,11.3294118 24.3574486,11.4485294 24.5963488,11.4485294 L24.5963488,14.0095588 L23.0434977,14.0095588 C21.848997,14.0095588 21.5503718,14.6051471 21.5503718,15.4389706 L21.5503718,17.4044118 L24.5366237,17.4044118 L23.9393733,20.3823529 L21.5503718,20.3823529 L21.6100968,27.5294118 L26.7464502,27.5294118 C27.1645254,27.5294118 27.5228757,27.1720588 27.5228757,26.7551471 L27.5228757,9.24485294 C27.5826007,8.82794118 27.2242505,8.47058824 26.8061752,8.47058824 Z" id="Mask"></path>
                    </g>
                </g>
            </g>
        </g>
    </g>
</svg>