<?xml version="1.0" encoding="UTF-8"?>
<svg width="25px" height="15px" viewBox="0 0 25 15" version="1.1" xmlns="http://www.w3.org/2000/svg" xmlns:xlink="http://www.w3.org/1999/xlink">
    <!-- Generator: Sketch 51.2 (57519) - http://www.bohemiancoding.com/sketch -->
    <title>Icon Copy</title>
    <desc>Created with Sketch.</desc>
    <defs></defs>
    <g id="Symbols" stroke="none" stroke-width="1" fill="none" fill-rule="evenodd">
        <g id="00-MFB-NAV" transform="translate(-272.000000, -31.000000)" fill="#2B2F45">
            <g id="00-Nav">
                <path d="M272,32.41875 C272,31.745653 272.54541,31.2 273.222726,31.2 L295.777274,31.2 C296.452567,31.2 297,31.7409603 297,32.41875 C297,33.091847 296.45459,33.6375 295.777274,33.6375 L273.222726,33.6375 C272.547433,33.6375 272,33.0965397 272,32.41875 Z M272,44.60625 C272,43.933153 272.54541,43.3875 273.222726,43.3875 L295.777274,43.3875 C296.452567,43.3875 297,43.9284603 297,44.60625 C297,45.279347 296.45459,45.825 295.777274,45.825 L273.222726,45.825 C272.547433,45.825 272,45.2840397 272,44.60625 Z M272,38.5125 C272,37.839403 272.54541,37.29375 273.222726,37.29375 L295.777274,37.29375 C296.452567,37.29375 297,37.8347103 297,38.5125 C297,39.185597 296.45459,39.73125 295.777274,39.73125 L273.222726,39.73125 C272.547433,39.73125 272,39.1902897 272,38.5125 Z" id="Icon-Copy"></path>
            </g>
        </g>
    </g>
</svg>