<?xml version="1.0" encoding="UTF-8"?>
<svg width="20px" height="20px" viewBox="0 0 20 20" version="1.1" xmlns="http://www.w3.org/2000/svg" xmlns:xlink="http://www.w3.org/1999/xlink">
    <!-- Generator: Sketch 51.2 (57519) - http://www.bohemiancoding.com/sketch -->
    <title>Mask</title>
    <desc>Created with Sketch.</desc>
    <defs></defs>
    <g id="Symbols" stroke="none" stroke-width="1" fill="none" fill-rule="evenodd">
        <g id="3_0-Footer" transform="translate(-229.000000, -164.000000)" fill="#2B2F45" fill-rule="nonzero">
            <g id="Footer">
                <g id="SOCIAL" transform="translate(123.000000, 156.000000)">
                    <g id="Group-15" transform="translate(98.000000, 0.000000)">
                        <path d="M18,10.1882647 C20.5443529,10.1882647 20.8461176,10.1977941 21.8514706,10.2438529 C24.4339412,10.3613824 25.6402059,11.5867059 25.7577353,14.1501176 C25.8037941,15.1546765 25.8125294,15.4564412 25.8125294,18.0007941 C25.8125294,20.5459412 25.803,20.8469118 25.7577353,21.8514706 C25.6394118,24.4125 24.4363235,25.6402059 21.8514706,25.7577353 C20.8461176,25.8037941 20.5459412,25.8133235 18,25.8133235 C15.4556471,25.8133235 15.1538824,25.8037941 14.1493235,25.7577353 C11.5605,25.6394118 10.3605882,24.4085294 10.2430588,21.8506765 C10.197,20.8461176 10.1874706,20.5451471 10.1874706,18 C10.1874706,15.4556471 10.1977941,15.1546765 10.2430588,14.1493235 C10.3613824,11.5867059 11.5644706,10.3605882 14.1493235,10.2430588 C15.1546765,10.1977941 15.4556471,10.1882647 18,10.1882647 Z M18,8.47058824 C15.4119706,8.47058824 15.0879706,8.48170588 14.0715,8.52776471 C10.6107353,8.68658824 8.68738235,10.6067647 8.52855882,14.0707059 C8.48170588,15.0879706 8.47058824,15.4119706 8.47058824,18 C8.47058824,20.5880294 8.48170588,20.9128235 8.52776471,21.9292941 C8.68658824,25.3900588 10.6067647,27.3134118 14.0707059,27.4722353 C15.0879706,27.5182941 15.4119706,27.5294118 18,27.5294118 C20.5880294,27.5294118 20.9128235,27.5182941 21.9292941,27.4722353 C25.3868824,27.3134118 27.315,25.3932353 27.4714412,21.9292941 C27.5182941,20.9128235 27.5294118,20.5880294 27.5294118,18 C27.5294118,15.4119706 27.5182941,15.0879706 27.4722353,14.0715 C27.3165882,10.6139118 25.3940294,8.68738235 21.9300882,8.52855882 C20.9128235,8.48170588 20.5880294,8.47058824 18,8.47058824 Z M18,13.1066471 C15.2976176,13.1066471 13.1066471,15.2976176 13.1066471,18 C13.1066471,20.7023824 15.2976176,22.8941471 18,22.8941471 C20.7023824,22.8941471 22.8933529,20.7031765 22.8933529,18 C22.8933529,15.2976176 20.7023824,13.1066471 18,13.1066471 Z M18,21.1764706 C16.2457941,21.1764706 14.8235294,19.755 14.8235294,18 C14.8235294,16.2457941 16.2457941,14.8235294 18,14.8235294 C19.7542059,14.8235294 21.1764706,16.2457941 21.1764706,18 C21.1764706,19.755 19.7542059,21.1764706 18,21.1764706 Z M23.0871176,11.7701471 C22.455,11.7701471 21.9427941,12.2823529 21.9427941,12.9136765 C21.9427941,13.545 22.455,14.0572059 23.0871176,14.0572059 C23.7184412,14.0572059 24.2298529,13.545 24.2298529,12.9136765 C24.2298529,12.2823529 23.7184412,11.7701471 23.0871176,11.7701471 Z" id="Mask"></path>
                    </g>
                </g>
            </g>
        </g>
    </g>
</svg>