<?xml version="1.0" encoding="UTF-8"?>
<svg width="20px" height="20px" viewBox="0 0 20 20" version="1.1" xmlns="http://www.w3.org/2000/svg" xmlns:xlink="http://www.w3.org/1999/xlink">
    <!-- Generator: Sketch 51.2 (57519) - http://www.bohemiancoding.com/sketch -->
    <title>Mask</title>
    <desc>Created with Sketch.</desc>
    <defs></defs>
    <g id="Symbols" stroke="none" stroke-width="1" fill="none" fill-rule="evenodd">
        <g id="3_0-Footer" transform="translate(-278.000000, -164.000000)" fill="#2B2F45" fill-rule="nonzero">
            <g id="Footer">
                <g id="SOCIAL" transform="translate(123.000000, 156.000000)">
                    <g id="Group-14" transform="translate(147.000000, 0.000000)">
                        <path d="M26.7551471,8.47058824 L9.24485294,8.47058824 C8.82794118,8.47058824 8.47058824,8.82794118 8.47058824,9.24485294 L8.47058824,26.6955882 C8.47058824,27.1720588 8.82794118,27.5294118 9.24485294,27.5294118 L26.6955882,27.5294118 C27.1125,27.5294118 27.4698529,27.1720588 27.4698529,26.7551471 L27.4698529,9.24485294 C27.5294118,8.82794118 27.1720588,8.47058824 26.7551471,8.47058824 Z M14.1286765,24.7301471 L11.2698529,24.7301471 L11.2698529,15.6176471 L14.1286765,15.6176471 L14.1286765,24.7301471 Z M12.6992647,14.3669118 C11.8058824,14.3669118 11.0316176,13.6522059 11.0316176,12.6992647 C11.0316176,11.8058824 11.7463235,11.0316176 12.6992647,11.0316176 C13.5926471,11.0316176 14.3669118,11.7463235 14.3669118,12.6992647 C14.3669118,13.6522059 13.5926471,14.3669118 12.6992647,14.3669118 Z M24.7301471,24.7301471 L21.9308824,24.7301471 L21.9308824,20.3227941 C21.9308824,19.2507353 21.9308824,17.9404412 20.4419118,17.9404412 C18.9529412,17.9404412 18.7742647,19.0720588 18.7742647,20.2632353 L18.7742647,24.7897059 L15.975,24.7897059 L15.975,15.6176471 L18.5955882,15.6176471 L18.5955882,16.8683824 L18.6551471,16.8683824 C19.0125,16.1536765 19.9654412,15.3794118 21.3352941,15.3794118 C24.1941176,15.3794118 24.7301471,17.2852941 24.7301471,19.7272059 L24.7301471,24.7301471 Z" id="Mask"></path>
                    </g>
                </g>
            </g>
        </g>
    </g>
</svg>