<?xml version="1.0" encoding="UTF-8"?>
<svg width="68px" height="70px" viewBox="0 0 68 70" version="1.1" xmlns="http://www.w3.org/2000/svg" xmlns:xlink="http://www.w3.org/1999/xlink">
    <!-- Generator: Sketch 51.2 (57519) - http://www.bohemiancoding.com/sketch -->
    <title>noun_957339_cc</title>
    <desc>Created with Sketch.</desc>
    <defs></defs>
    <g id="Internals" stroke="none" stroke-width="1" fill="none" fill-rule="evenodd">
        <g id="0_3_0-HOMEPAGE_REF" transform="translate(-686.000000, -3594.000000)" fill="#FFFFFF" fill-rule="nonzero">
            <g id="10---Form" transform="translate(0.000000, 3561.000000)">
                <g id="noun_957339_cc" transform="translate(686.000000, 33.000000)">
                    <path d="M46.8,17.9195402 L19.6,17.9195402 C18.96,17.9195402 18.4,18.4827586 18.4,19.1264368 C18.4,19.7701149 18.96,20.3333333 19.6,20.3333333 L46.8,20.3333333 C47.44,20.3333333 48,19.7701149 48,19.1264368 C48,18.4022989 47.52,17.9195402 46.8,17.9195402 Z" id="Shape"></path>
                    <path d="M46.8,25.9655172 L19.6,25.9655172 C18.96,25.9655172 18.4,26.5287356 18.4,27.1724138 C18.4,27.816092 18.96,28.3793103 19.6,28.3793103 L46.8,28.3793103 C47.44,28.3793103 48,27.816092 48,27.1724138 C48,26.4482759 47.52,25.9655172 46.8,25.9655172 Z" id="Shape"></path>
                    <path d="M67.36,27.4367816 C67.28,27.0344828 67.04,26.7126437 66.72,26.4712644 L56.88,22.3678161 L56.88,1.20689655 C56.88,0.563218391 56.32,0 55.68,0 L11.68,0 C11.04,0 10.48,0.563218391 10.48,1.20689655 L10.48,22.3678161 L0.8,26.3908046 C0.32,26.4712644 0,26.954023 0,27.5172414 L0,68.0689655 C0,68.7126437 0.56,69.2758621 1.2,69.2758621 L66.16,69.2758621 C66.8,69.2758621 67.36,68.7126437 67.36,68.0689655 L67.36,27.5172414 L67.36,27.4367816 Z M3.76,27.6781609 L10.48,24.862069 L10.48,31.862069 L3.76,27.6781609 Z M56.88,31.7816092 L56.88,24.7816092 L63.6,27.5977011 L56.88,31.7816092 Z M12.88,33.2298851 L12.88,2.33333333 L54.48,2.33333333 L54.48,33.1494253 L33.68,45.862069 L12.88,33.2298851 Z M64.96,29.6091954 L64.96,66.862069 L2.4,66.862069 L2.4,29.6091954 L33.12,48.2758621 C33.36,48.4367816 33.52,48.4367816 33.68,48.4367816 C33.84,48.4367816 34,48.4367816 34.32,48.2758621 L64.96,29.6091954 Z" id="Shape"></path>
                    <path d="M39.6,12.8505747 L46.56,12.8505747 C47.2,12.8505747 47.76,12.2873563 47.76,11.6436782 L47.76,4.64367816 C47.76,4 47.2,3.43678161 46.56,3.43678161 L39.6,3.43678161 C38.96,3.43678161 38.4,4 38.4,4.64367816 L38.4,11.6436782 C38.4,12.2873563 38.96,12.8505747 39.6,12.8505747 Z M40.72,10.5172414 L40.72,5.85057471 L45.36,5.85057471 L45.36,10.5172414 L40.72,10.5172414 Z" id="Shape"></path>
                </g>
            </g>
        </g>
    </g>
</svg>