<?xml version="1.0" encoding="UTF-8"?>
<svg width="26px" height="26px" viewBox="0 0 26 26" version="1.1" xmlns="http://www.w3.org/2000/svg" xmlns:xlink="http://www.w3.org/1999/xlink">
    <!-- Generator: Sketch 51.2 (57519) - http://www.bohemiancoding.com/sketch -->
    <title>Plus</title>
    <desc>Created with Sketch.</desc>
    <defs>
        <path d="M24.2,11.4 L14.6,11.4 L14.6,1.8 C14.6,0.9168 13.8832,0.2 13,0.2 C12.1168,0.2 11.4,0.9168 11.4,1.8 L11.4,11.4 L1.8,11.4 C0.9168,11.4 0.2,12.1168 0.2,13 C0.2,13.8832 0.9168,14.6 1.8,14.6 L11.4,14.6 L11.4,24.2 C11.4,25.0848 12.1168,25.8 13,25.8 C13.8832,25.8 14.6,25.0848 14.6,24.2 L14.6,14.6 L24.2,14.6 C25.0848,14.6 25.8,13.8832 25.8,13 C25.8,12.1168 25.0848,11.4 24.2,11.4" id="path-1"></path>
    </defs>
    <g id="Internals" stroke="none" stroke-width="1" fill="none" fill-rule="evenodd">
        <g id="7-Kitchen-Sink" transform="translate(-1239.000000, -4041.000000)">
            <g id="Accordian" transform="translate(123.000000, 3531.000000)">
                <g id="Second-Group-Bar" transform="translate(0.000000, 476.000000)">
                    <g id="Plus" transform="translate(1116.000000, 34.000000)">
                        <mask id="mask-2" fill="white">
                            <use xlink:href="#path-1"></use>
                        </mask>
                        <use id="Icon" fill="#31373D" xlink:href="#path-1"></use>
                        <g id="Color/Default" mask="url(#mask-2)">
                            <g transform="translate(-3.000000, -3.000000)"></g>
                        </g>
                    </g>
                </g>
            </g>
        </g>
    </g>
</svg>