<?xml version="1.0" encoding="UTF-8"?>
<svg width="23px" height="20px" viewBox="0 0 23 20" version="1.1" xmlns="http://www.w3.org/2000/svg" xmlns:xlink="http://www.w3.org/1999/xlink">
    <!-- Generator: Sketch 51.2 (57519) - http://www.bohemiancoding.com/sketch -->
    <title>Mask</title>
    <desc>Created with Sketch.</desc>
    <defs></defs>
    <g id="Symbols" stroke="none" stroke-width="1" fill="none" fill-rule="evenodd">
        <g id="3_0-Footer" transform="translate(-179.000000, -164.000000)" fill="#2B2F45" fill-rule="nonzero">
            <g id="Footer">
                <g id="SOCIAL" transform="translate(123.000000, 156.000000)">
                    <g id="Group-16" transform="translate(49.000000, 0.000000)">
                        <path d="M29.1176471,10.7429864 C28.2864211,11.1095023 27.4551952,11.4027149 26.4854316,11.4760181 C27.4551952,10.8895928 28.1478835,9.93665158 28.4942276,8.83710407 C27.5937328,9.42352941 26.6239692,9.79004525 25.5849368,10.0099548 C24.7537108,9.05701357 23.5761407,8.47058824 22.3293018,8.47058824 C19.835624,8.47058824 17.7575591,10.5963801 17.7575591,13.3085973 C17.7575591,13.6751131 17.8268279,14.041629 17.8960968,14.4081448 C14.0863112,14.1882353 10.7614074,12.2823529 8.47553601,9.35022624 C8.05992303,10.0832579 7.85211655,10.8895928 7.85211655,11.7692308 C7.85211655,13.4552036 8.6833425,14.921267 9.86091259,15.800905 C9.09895547,15.800905 8.40626718,15.5809955 7.78284772,15.2144796 L7.78284772,15.2877828 C7.78284772,17.6334842 9.37603079,19.5393665 11.4540957,19.9791855 C11.0384827,20.0524887 10.6921385,20.1257919 10.2765256,20.1257919 C9.99945025,20.1257919 9.72237493,20.1257919 9.44529962,20.0524887 C9.99945025,21.958371 11.731171,23.3511312 13.6706982,23.4244344 C12.1467839,24.7438914 10.1379879,25.4769231 7.99065421,25.4769231 C7.64431006,25.4769231 7.22869709,25.4769231 6.88235294,25.4036199 C8.96041781,26.7230769 11.3848268,27.5294118 13.9477735,27.5294118 C22.3293018,27.5294118 26.9010445,20.199095 26.9010445,13.8217195 L26.9010445,13.2352941 C27.7322705,12.5022624 28.4942276,11.6959276 29.1176471,10.7429864 Z" id="Mask"></path>
                    </g>
                </g>
            </g>
        </g>
    </g>
</svg>