<?xml version="1.0" encoding="UTF-8"?>
<svg width="21px" height="15px" viewBox="0 0 21 15" version="1.1" xmlns="http://www.w3.org/2000/svg" xmlns:xlink="http://www.w3.org/1999/xlink">
    <!-- Generator: Sketch 51.2 (57519) - http://www.bohemiancoding.com/sketch -->
    <title>Mask</title>
    <desc>Created with Sketch.</desc>
    <defs></defs>
    <g id="Symbols" stroke="none" stroke-width="1" fill="none" fill-rule="evenodd">
        <g id="3_0-Footer" transform="translate(-327.000000, -167.000000)" fill="#2B2F45" fill-rule="nonzero">
            <g id="Footer">
                <g id="SOCIAL" transform="translate(123.000000, 156.000000)">
                    <g id="Group-13" transform="translate(196.000000, 0.000000)">
                        <path d="M28.803125,14.2139511 C28.803125,14.2139511 28.60625,12.7709526 27.95,12.1150442 C27.1625,11.2623634 26.24375,11.2623634 25.85,11.1967725 C22.896875,11 18.5,11 18.5,11 C18.5,11 14.103125,11 11.15,11.1967725 C10.75625,11.2623634 9.8375,11.2623634 9.05,12.1150442 C8.39375,12.7709526 8.196875,14.2139511 8.196875,14.2139511 C8.196875,14.2139511 8,15.9193129 8,17.6246746 L8,19.1988548 C8,20.9042166 8.196875,22.6095783 8.196875,22.6095783 C8.196875,22.6095783 8.39375,24.0525768 9.05,24.7084852 C9.8375,25.5611661 10.8875,25.4955752 11.346875,25.6267569 C13.053125,25.7579386 18.5,25.8235294 18.5,25.8235294 C18.5,25.8235294 22.896875,25.8235294 25.85,25.6267569 C26.24375,25.5611661 27.1625,25.5611661 27.95,24.7084852 C28.60625,24.0525768 28.803125,22.6095783 28.803125,22.6095783 C28.803125,22.6095783 29,20.9042166 29,19.1988548 L29,17.6246746 C29,15.9193129 28.803125,14.2139511 28.803125,14.2139511 Z M16.334375,21.1665799 L16.334375,15.2634045 L21.978125,18.2149922 L16.334375,21.1665799 Z" id="Mask"></path>
                    </g>
                </g>
            </g>
        </g>
    </g>
</svg>