<?xml version="1.0" encoding="UTF-8"?>
<svg width="194px" height="71px" viewBox="0 0 194 71" version="1.1" xmlns="http://www.w3.org/2000/svg" xmlns:xlink="http://www.w3.org/1999/xlink">
    <!-- Generator: Sketch 51.2 (57519) - http://www.bohemiancoding.com/sketch -->
    <title>MFB / White Logo</title>
    <desc>Created with Sketch.</desc>
    <defs>
        <polygon id="path-1" points="0.0263945578 0.157557534 70.6375556 0.157557534 70.6375556 70.9735404 0.0263945578 70.9735404"></polygon>
    </defs>
    <g id="Symbols" stroke="none" stroke-width="1" fill="none" fill-rule="evenodd">
        <g id="3_0-Footer" transform="translate(-123.000000, -50.000000)">
            <g id="Footer">
                <g id="MFB-/-White-Logo" transform="translate(123.000000, 50.000000)">
                    <g id="Group-3" stroke-width="1">
                        <mask id="mask-2" fill="white">
                            <use xlink:href="#path-1"></use>
                        </mask>
                        <g id="Clip-2"></g>
                        <path d="M55.275483,61.5411242 C47.1609161,67.9580248 36.1253515,69.8798758 26.2414694,67.092354 C26.0593469,67.0411988 25.8789841,66.9847516 25.6981814,66.9300683 C24.570254,60.8020186 24.4844717,51.0736957 31.9880045,44.7035404 C32.2057596,44.520528 37.6276417,40.9753789 42.4499274,41.678323 C47.2735329,42.3795031 52.5515646,47.0289006 57.3575737,44.942559 C63.6183628,42.2317702 66.7430385,37.8937143 68.0042585,35.6719876 C67.8507302,45.8501242 63.2598367,55.2269752 55.275483,61.5411242 Z M4.9775737,47.8822236 C0.986716553,38.3078075 2.13531973,27.0823106 7.50353288,18.2985963 C7.64386395,18.0688385 7.79255329,17.8456957 7.93860317,17.6199068 C8.54171882,18.9913975 10.1429887,22.6926584 11.1090295,25.4695963 C12.5435737,29.5862733 11.6320816,33.3250186 13.5294104,36.1883913 C15.9084399,39.7846957 20.3884762,39.9831429 22.7617868,40.5674596 C25.026,41.1270807 28.5945442,43.5485776 25.9999592,45.8368944 C24.3283039,47.4637205 21.7851882,54.595472 20.4645805,58.2499876 C19.6604263,60.4761242 19.4959002,61.3519379 18.8065624,63.896472 C12.6451927,60.2490124 7.76571882,54.5712174 4.9775737,47.8822236 Z M42.6329297,3.63599379 C42.3364308,5.68396894 41.210263,10.8779938 37.2066485,13.8361801 C34.6622132,15.7121677 32.1732063,17.3729503 29.9450658,21.7118882 C27.7156054,26.060087 28.6363356,31.5601615 29.1246349,34.2837391 C29.6146939,37.0099627 31.9576508,39.5430311 30.4232472,41.1676522 C29.8249705,41.8048882 28.0666531,41.9433602 27.3671973,40.3465217 C26.9594014,39.4173478 26.5287302,38.127441 26.2229932,36.3639068 C25.6339546,32.9735466 26.1574467,24.8636708 22.2369751,20.8532733 C16.5331111,15.0149565 10.6018141,16.1253789 8.4981678,16.7837826 C16.0412925,5.9075528 29.7897778,0.766447205 42.6329297,3.63599379 Z M67.9717052,34.1933354 C66.4716145,34.0336957 63.011288,33.5344907 60.9010431,32.1916646 C58.6680635,30.7685776 52.8678594,29.6475714 48.9196735,30.6199627 C44.9697279,31.594559 40.6313424,38.1397888 40.6313424,38.1397888 C38.984322,39.5910994 34.9340771,41.1354596 34.1774331,40.470882 C32.8739819,39.330472 35.6964399,35.2742112 38.6046803,33.2077143 C41.874966,30.887205 46.7764354,30.6949317 48.6970794,24.7154969 C51.5256961,15.9189938 45.8143537,6.92183851 43.5778549,3.86310559 C43.839161,3.92969565 44.1004671,3.99319876 44.3608934,4.06640373 C57.8199184,7.86247826 67.3087619,20.3536273 67.9717052,34.1933354 Z M33.838263,0.192273292 C13.706254,1.09145963 -1.48469388,18.886882 0.115696145,38.8797764 C1.59775057,57.3882857 18.4036054,71.7862919 36.7640998,70.9664845 C55.4796009,70.1303602 70.4712698,54.458764 70.6375556,35.7041801 C70.4611519,15.8374099 53.873932,-0.702944099 33.838263,0.192273292 Z" id="Fill-1" fill="#FFFFFF" mask="url(#mask-2)"></path>
                    </g>
                    <path d="M46.9075283,53.1124099 C46.9075283,57.4566398 43.547941,60.9784161 39.4026757,60.9784161 C35.2574104,60.9784161 31.8973832,57.4566398 31.8973832,53.1124099 C31.8973832,48.7677391 35.2574104,45.2459627 39.4026757,45.2459627 C43.547941,45.2459627 46.9075283,48.7677391 46.9075283,53.1124099" id="Fill-4" fill="#FFFFFF"></path>
                    <polyline id="Fill-5" fill="#FFFFFF" points="79.7186032 18.1967267 82.4240454 18.1967267 86.6801678 28.3611925 86.7553923 28.3611925 90.9736825 18.1967267 93.6786848 18.1967267 93.6786848 31.6223416 91.8627392 31.6223416 91.8627392 20.5860311 91.824907 20.5860311 87.3039592 31.6223416 86.0937687 31.6223416 81.572381 20.5860311 81.5345488 20.5860311 81.5345488 31.6223416 79.7186032 31.6223416 79.7186032 18.1967267"></polyline>
                    <path d="M106.106562,26.7109938 L103.609637,20.5481056 L103.571805,20.5481056 L101.037488,26.7109938 L106.106562,26.7109938 Z M102.852993,18.1967267 L104.498254,18.1967267 L110.229832,31.6223416 L108.111229,31.6223416 L106.768186,28.3043043 L100.3939,28.3043043 L99.0697732,31.6223416 L96.9511701,31.6223416 L102.852993,18.1967267 Z" id="Fill-6" fill="#FFFFFF"></path>
                    <path d="M115.451116,24.1130994 L117.834544,24.1130994 C119.272168,24.1130994 120.709351,23.7722112 120.709351,21.9513478 C120.709351,20.1313665 119.272168,19.7895963 117.834544,19.7895963 L115.451116,19.7895963 L115.451116,24.1130994 Z M113.63473,18.1967267 L118.344839,18.1967267 C121.769093,18.1967267 122.638354,20.2641056 122.638354,21.9513478 C122.638354,23.6584348 121.370975,25.2698261 119.347832,25.4973789 L123.149528,31.6223416 L120.879596,31.6223416 L117.474698,25.7059689 L115.451116,25.7059689 L115.451116,31.6223416 L113.63473,31.6223416 L113.63473,18.1967267 Z" id="Fill-7" fill="#FFFFFF"></path>
                    <polyline id="Fill-8" fill="#FFFFFF" points="129.678662 25.8960373 124.609587 18.1967267 126.936268 18.1967267 130.587075 24.0941366 134.350939 18.1967267 136.564122 18.1967267 131.495048 25.8960373 131.495048 31.6223416 129.678662 31.6223416 129.678662 25.8960373"></polyline>
                    <polyline id="Fill-9" fill="#FFFFFF" points="139.09888 18.1967267 140.915265 18.1967267 140.915265 29.9156957 147.062998 29.9156957 147.062998 31.6223416 139.09888 31.6223416 139.09888 18.1967267"></polyline>
                    <path d="M158.251211,26.7109938 L155.754726,20.5481056 L155.716893,20.5481056 L153.182136,26.7109938 L158.251211,26.7109938 Z M154.998522,18.1967267 L156.643782,18.1967267 L162.375361,31.6223416 L160.256757,31.6223416 L158.913714,28.3043043 L152.539429,28.3043043 L151.215302,31.6223416 L149.096698,31.6223416 L154.998522,18.1967267 Z" id="Fill-10" fill="#FFFFFF"></path>
                    <polyline id="Fill-11" fill="#FFFFFF" points="165.340789 18.1967267 167.724218 18.1967267 175.101057 29.2330373 175.138889 29.2330373 175.138889 18.1967267 176.954395 18.1967267 176.954395 31.6223416 174.64663 31.6223416 167.193687 20.5860311 167.155855 20.5860311 167.155855 31.6223416 165.340789 31.6223416 165.340789 18.1967267"></polyline>
                    <path d="M183.13556,29.9156957 L185.424408,29.9156957 C188.488376,29.9156957 191.098358,28.2275714 191.098358,24.9099752 C191.098358,23.2028882 190.210181,19.9038137 185.859039,19.9038137 L183.13556,19.9038137 L183.13556,29.9156957 Z M181.319175,18.1967267 L185.991451,18.1967267 C191.647365,18.1967267 193.02824,22.4258571 193.02824,24.9099752 C193.02824,28.3422298 190.474567,31.6223416 185.688794,31.6223416 L181.319175,31.6223416 L181.319175,18.1967267 Z" id="Fill-12" fill="#FFFFFF"></path>
                    <polyline id="Fill-13" fill="#FFFFFF" points="79.9315193 38.7404224 88.740263 38.7404224 88.740263 40.5268882 81.8314875 40.5268882 81.8314875 44.9319752 88.265161 44.9319752 88.265161 46.718441 81.8314875 46.718441 81.8314875 52.7904845 79.9315193 52.7904845 79.9315193 38.7404224"></polyline>
                    <path d="M102.497986,45.7654534 C102.497986,42.6895217 100.419415,40.1692422 97.2124762,40.1692422 C94.0059773,40.1692422 91.9274059,42.6895217 91.9274059,45.7654534 C91.9274059,48.8413851 94.0059773,51.3616646 97.2124762,51.3616646 C100.419415,51.3616646 102.497986,48.8413851 102.497986,45.7654534 Z M89.9082222,45.7654534 C89.9082222,41.5985031 92.9369977,38.3832174 97.2124762,38.3832174 C101.488395,38.3832174 104.51717,41.5985031 104.51717,45.7654534 C104.51717,49.9328447 101.488395,53.1472484 97.2124762,53.1472484 C92.9369977,53.1472484 89.9082222,49.9328447 89.9082222,45.7654534 Z" id="Fill-14" fill="#FFFFFF"></path>
                    <path d="M118.453497,45.7654534 C118.453497,42.6895217 116.374045,40.1692422 113.167546,40.1692422 C109.961048,40.1692422 107.882476,42.6895217 107.882476,45.7654534 C107.882476,48.8413851 109.961048,51.3616646 113.167546,51.3616646 C116.374045,51.3616646 118.453497,48.8413851 118.453497,45.7654534 Z M105.863293,45.7654534 C105.863293,41.5985031 108.892068,38.3832174 113.167546,38.3832174 C117.443905,38.3832174 120.47224,41.5985031 120.47224,45.7654534 C120.47224,49.9328447 117.443905,53.1472484 113.167546,53.1472484 C108.892068,53.1472484 105.863293,49.9328447 105.863293,45.7654534 Z" id="Fill-15" fill="#FFFFFF"></path>
                    <path d="M124.273497,51.0040186 L126.667923,51.0040186 C129.875302,51.0040186 132.606698,49.2382795 132.606698,45.7654534 C132.606698,43.9794286 131.67629,40.5268882 127.123669,40.5268882 L124.273497,40.5268882 L124.273497,51.0040186 Z M122.373088,38.7404224 L127.2618,38.7404224 C133.18078,38.7404224 134.625882,43.165795 134.625882,45.7654534 C134.625882,49.3573478 131.953873,52.7904845 126.945506,52.7904845 L122.373088,52.7904845 L122.373088,38.7404224 Z" id="Fill-16" fill="#FFFFFF"></path>
                    <path d="M143.732444,51.123087 L146.523229,51.123087 C147.671392,51.123087 149.552005,50.7266335 149.552005,48.7421615 C149.552005,47.075646 148.384485,46.2417267 146.543025,46.2417267 L143.732444,46.2417267 L143.732444,51.123087 Z M143.732444,44.5752112 L146.32571,44.5752112 C147.770812,44.5752112 148.938331,43.9988323 148.938331,42.4707888 C148.938331,41.3599255 148.245034,40.4069379 146.720748,40.4069379 L143.732444,40.4069379 L143.732444,44.5752112 Z M141.832036,38.7404224 L146.700952,38.7404224 C149.13629,38.7404224 150.957515,39.8715714 150.957515,42.2529379 C150.957515,43.8603602 149.967719,44.872441 148.542413,45.3487143 L148.542413,45.3884037 C150.224626,45.5070311 151.571188,46.9953851 151.571188,48.8810745 C151.571188,51.401354 149.374281,52.7904845 146.642005,52.7904845 L141.832036,52.7904845 L141.832036,38.7404224 Z" id="Fill-17" fill="#FFFFFF"></path>
                    <path d="M161.587483,47.6511429 L158.974862,41.2011677 L158.93527,41.2011677 L156.283057,47.6511429 L161.587483,47.6511429 Z M158.182585,38.7404224 L159.90527,38.7404224 L165.903433,52.7904845 L163.68585,52.7904845 L162.28078,49.3176584 L155.609116,49.3176584 L154.224281,52.7904845 L152.006698,52.7904845 L158.182585,38.7404224 Z" id="Fill-18" fill="#FFFFFF"></path>
                    <polyline id="Fill-19" fill="#FFFFFF" points="167.210404 38.7404224 169.704249 38.7404224 177.424218 50.2900497 177.46381 50.2900497 177.46381 38.7404224 179.364218 38.7404224 179.364218 52.7904845 176.949116 52.7904845 169.150404 41.2408571 169.110812 41.2408571 169.110812 52.7904845 167.210404 52.7904845 167.210404 38.7404224"></polyline>
                    <polyline id="Fill-20" fill="#FFFFFF" points="182.452381 38.7404224 184.352789 38.7404224 184.352789 44.8129068 184.511156 44.8129068 190.707719 38.7404224 193.359932 38.7404224 186.589288 45.230087 193.815238 52.7904845 191.04337 52.7904845 184.511156 45.7654534 184.352789 45.7654534 184.352789 52.7904845 182.452381 52.7904845 182.452381 38.7404224"></polyline>
                </g>
            </g>
        </g>
    </g>
</svg>