<?xml version="1.0" encoding="UTF-8"?>
<svg width="178px" height="65px" viewBox="0 0 178 65" version="1.1" xmlns="http://www.w3.org/2000/svg" xmlns:xlink="http://www.w3.org/1999/xlink">
    <!-- Generator: Sketch 51.2 (57519) - http://www.bohemiancoding.com/sketch -->
    <title>MFB / Color Logo Copy 3</title>
    <desc>Created with Sketch.</desc>
    <defs>
        <polygon id="path-1" points="0.0242176871 0.144242813 64.8117778 0.144242813 64.8117778 64.9757764 0.0242176871 64.9757764"></polygon>
    </defs>
    <g id="Symbols" stroke="none" stroke-width="1" fill="none" fill-rule="evenodd">
        <g id="3_0_Navigation" transform="translate(-51.000000, -41.000000)">
            <g id="Navigation-on-white">
                <g id="Navigation" transform="translate(0.000000, 33.000000)">
                    <g id="MFB-/-Color-Logo" transform="translate(51.000000, 8.000000)">
                        <g id="Group">
                            <g id="Group-3">
                                <mask id="mask-2" fill="white">
                                    <use xlink:href="#path-1"></use>
                                </mask>
                                <g id="Clip-2"></g>
                                <path d="M50.7166803,56.3404658 C43.271356,62.2150932 33.145941,63.9745342 24.0772245,61.4225776 C23.9101224,61.3757453 23.7446349,61.3240683 23.5787438,61.2740062 C22.5438413,55.6638199 22.4651338,46.7576087 29.3498186,40.9257764 C29.5496145,40.7582298 34.5243311,37.5126708 38.9489025,38.1562112 C43.3746848,38.7981366 48.217415,43.0546273 52.6270522,41.1445963 C58.3714875,38.6628882 61.238458,34.6914286 62.3956599,32.6574534 C62.2547937,41.9754658 58.0425306,50.5599068 50.7166803,56.3404658 Z M4.56705215,43.8358385 C0.905337868,35.070528 1.95921088,24.7936646 6.88468481,16.752236 C7.01344218,16.5418944 7.14986848,16.3376087 7.28387302,16.1309006 C7.83724717,17.3864907 9.30645351,20.7749689 10.1928209,23.317236 C11.5090522,27.0860248 10.6727347,30.5088199 12.4135828,33.1302174 C14.5964036,36.4226087 18.7069524,36.6042857 20.8845261,37.1392236 C22.962,37.6515528 26.2362313,39.8684161 23.8556327,41.963354 C22.3218458,43.4527019 19.9884717,49.9817702 18.77678,53.3274534 C18.0389478,55.3654658 17.8879909,56.1672671 17.2555057,58.4967702 C11.6022902,55.1575466 7.12524717,49.9595652 4.56705215,43.8358385 Z M39.1168118,3.32872671 C38.8447664,5.20363354 37.8114785,9.95872671 34.138059,12.6669255 C31.8034739,14.3843789 29.519746,15.9048137 27.4753696,19.8770807 C25.4297823,23.8578261 26.274576,28.8931056 26.7226032,31.3865217 C27.1722449,33.8823602 29.3219683,36.2013665 27.9141134,37.6886957 C27.3651791,38.2720807 25.7518776,38.3988509 25.1101088,36.9369565 C24.7359456,36.0863043 24.3407937,34.9054037 24.0602721,33.2909006 C23.5198141,30.1870497 24.0001315,22.7625155 20.4029977,19.0910248 C15.1695556,13.746087 9.72743764,14.7626708 7.79728798,15.3654348 C14.7182993,5.40832298 27.3328889,0.701677019 39.1168118,3.32872671 Z M62.3657914,31.3037578 C60.9894195,31.1576087 57.8144807,30.7005901 55.8782766,29.4712422 C53.8294603,28.1684161 48.5076236,27.1421429 44.8850612,28.0323602 C41.2608844,28.9245963 37.2803039,34.9167081 37.2803039,34.9167081 C35.7691202,36.2453727 32.0529161,37.6592236 31.3586757,37.0508075 C30.1627256,36.0067702 32.7524036,32.2932919 35.4207891,30.4014286 C38.4213605,28.2770186 42.918585,28.1009938 44.6808254,22.6268634 C47.2761542,14.5737267 42.0358503,6.33689441 39.983805,3.53664596 C40.2235601,3.5976087 40.4633152,3.65574534 40.702263,3.72276398 C53.0512653,7.19804348 61.7575238,18.6336025 62.3657914,31.3037578 Z M31.0474785,0.176024845 C12.5758413,0.999223602 -1.3622449,17.2908075 0.106154195,35.5941615 C1.46597732,52.5385714 16.8857823,65.7198447 33.7320091,64.9693168 C50.9039637,64.2038509 64.6592063,49.8566149 64.8117778,32.6869255 C64.6499229,14.4990373 49.4307211,-0.643540373 31.0474785,0.176024845 Z" id="Fill-1" fill="#EF3124" mask="url(#mask-2)"></path>
                            </g>
                            <path d="M43.0388662,48.6240373 C43.0388662,52.6011491 39.9563583,55.8253106 36.1529705,55.8253106 C32.3495828,55.8253106 29.2666712,52.6011491 29.2666712,48.6240373 C29.2666712,44.6465217 32.3495828,41.4223602 36.1529705,41.4223602 C39.9563583,41.4223602 43.0388662,44.6465217 43.0388662,48.6240373" id="Fill-4" fill="#FDC057"></path>
                            <polyline id="Fill-5" fill="#EF3124" points="73.143873 16.6589752 75.6261859 16.6589752 79.531288 25.964472 79.6003084 25.964472 83.4706984 16.6589752 85.9526077 16.6589752 85.9526077 28.9500311 84.2864308 28.9500311 84.2864308 18.8463665 84.2517188 18.8463665 80.1036327 28.9500311 78.9932517 28.9500311 74.8447619 18.8463665 74.8100499 18.8463665 74.8100499 28.9500311 73.143873 28.9500311 73.143873 16.6589752"></polyline>
                            <path d="M97.3555057,24.4537267 L95.0645125,18.811646 L95.0298005,18.811646 L92.7044989,24.4537267 L97.3555057,24.4537267 Z M94.3702721,16.6589752 L95.8798413,16.6589752 L101.138712,28.9500311 L99.194839,28.9500311 L97.9625624,25.9123913 L92.1139909,25.9123913 L90.8990703,28.9500311 L88.9551973,28.9500311 L94.3702721,16.6589752 Z" id="Fill-6" fill="#EF3124"></path>
                            <path d="M105.929374,22.0753727 L108.116231,22.0753727 C109.435288,22.0753727 110.753941,21.7632919 110.753941,20.0963043 C110.753941,18.4301242 109.435288,18.117236 108.116231,18.117236 L105.929374,18.117236 L105.929374,22.0753727 Z M104.262794,16.6589752 L108.58444,16.6589752 C111.726281,16.6589752 112.52385,18.551646 112.52385,20.0963043 C112.52385,21.6591304 111.360998,23.1343478 109.504712,23.3426708 L112.992866,28.9500311 L110.910145,28.9500311 L107.786063,23.5336335 L105.929374,23.5336335 L105.929374,28.9500311 L104.262794,28.9500311 L104.262794,16.6589752 Z" id="Fill-7" fill="#EF3124"></path>
                            <polyline id="Fill-8" fill="#EF3124" points="118.983515 23.7076398 114.332508 16.6589752 116.467297 16.6589752 119.817007 22.0580124 123.270449 16.6589752 125.301102 16.6589752 120.650095 23.7076398 120.650095 28.9500311 118.983515 28.9500311 118.983515 23.7076398"></polyline>
                            <polyline id="Fill-9" fill="#EF3124" points="127.626807 16.6589752 129.293388 16.6589752 129.293388 27.3876087 134.934091 27.3876087 134.934091 28.9500311 127.626807 28.9500311 127.626807 16.6589752"></polyline>
                            <path d="M145.199565,24.4537267 L142.908975,18.811646 L142.874263,18.811646 L140.548558,24.4537267 L145.199565,24.4537267 Z M142.215138,16.6589752 L143.724707,16.6589752 L148.983578,28.9500311 L147.039705,28.9500311 L145.807429,25.9123913 L139.958857,25.9123913 L138.743937,28.9500311 L136.800063,28.9500311 L142.215138,16.6589752 Z" id="Fill-10" fill="#EF3124"></path>
                            <polyline id="Fill-11" fill="#EF3124" points="151.704435 16.6589752 153.891293 16.6589752 160.659732 26.7626398 160.694444 26.7626398 160.694444 16.6589752 162.360218 16.6589752 162.360218 28.9500311 160.242785 28.9500311 153.404517 18.8463665 153.369805 18.8463665 153.369805 28.9500311 151.704435 28.9500311 151.704435 16.6589752"></polyline>
                            <path d="M168.031596,27.3876087 L170.131673,27.3876087 C172.942943,27.3876087 175.337669,25.8421429 175.337669,22.8049068 C175.337669,21.2420807 174.522744,18.2218012 170.530458,18.2218012 L168.031596,18.2218012 L168.031596,27.3876087 Z M166.365016,16.6589752 L170.65195,16.6589752 C175.841397,16.6589752 177.108385,20.5307143 177.108385,22.8049068 C177.108385,25.9471118 174.765324,28.9500311 170.374254,28.9500311 L166.365016,28.9500311 L166.365016,16.6589752 Z" id="Fill-12" fill="#EF3124"></path>
                            <polyline id="Fill-13" fill="#EF3124" points="73.339229 35.4665839 81.4214785 35.4665839 81.4214785 37.1020807 75.0824989 37.1020807 75.0824989 41.1349068 80.9855601 41.1349068 80.9855601 42.7704037 75.0824989 42.7704037 75.0824989 48.3293168 73.339229 48.3293168 73.339229 35.4665839"></polyline>
                            <path d="M94.0445442,41.8979503 C94.0445442,39.0819565 92.1374014,36.7746584 89.1949524,36.7746584 C86.252907,36.7746584 84.3457642,39.0819565 84.3457642,41.8979503 C84.3457642,44.7139441 86.252907,47.0212422 89.1949524,47.0212422 C92.1374014,47.0212422 94.0445442,44.7139441 94.0445442,41.8979503 Z M82.4931111,41.8979503 C82.4931111,38.0831366 85.2720907,35.1395652 89.1949524,35.1395652 C93.1182177,35.1395652 95.8971973,38.0831366 95.8971973,41.8979503 C95.8971973,45.7131677 93.1182177,48.6559317 89.1949524,48.6559317 C85.2720907,48.6559317 82.4931111,45.7131677 82.4931111,41.8979503 Z" id="Fill-14" fill="#EF3124"></path>
                            <path d="M108.684136,41.8979503 C108.684136,39.0819565 106.776186,36.7746584 103.834141,36.7746584 C100.892095,36.7746584 98.9849524,39.0819565 98.9849524,41.8979503 C98.9849524,44.7139441 100.892095,47.0212422 103.834141,47.0212422 C106.776186,47.0212422 108.684136,44.7139441 108.684136,41.8979503 Z M97.1322993,41.8979503 C97.1322993,38.0831366 99.9112789,35.1395652 103.834141,35.1395652 C107.75781,35.1395652 110.536385,38.0831366 110.536385,41.8979503 C110.536385,45.7131677 107.75781,48.6559317 103.834141,48.6559317 C99.9112789,48.6559317 97.1322993,45.7131677 97.1322993,41.8979503 Z" id="Fill-15" fill="#EF3124"></path>
                            <path d="M114.024136,46.6938199 L116.221084,46.6938199 C119.163937,46.6938199 121.670063,45.0772981 121.670063,41.8979503 C121.670063,40.2628571 120.81639,37.1020807 116.639243,37.1020807 L114.024136,37.1020807 L114.024136,46.6938199 Z M112.280463,35.4665839 L116.765982,35.4665839 C122.196798,35.4665839 123.522717,39.5179814 123.522717,41.8979503 C123.522717,45.1863043 121.071079,48.3293168 116.475773,48.3293168 L112.280463,48.3293168 L112.280463,35.4665839 Z" id="Fill-16" fill="#EF3124"></path>
                            <path d="M131.878222,46.8028261 L134.438839,46.8028261 C135.492308,46.8028261 137.217819,46.4398758 137.217819,44.6231056 C137.217819,43.0974224 136.14659,42.3339752 134.457002,42.3339752 L131.878222,42.3339752 L131.878222,46.8028261 Z M131.878222,40.8082919 L134.25761,40.8082919 C135.583528,40.8082919 136.654757,40.2806211 136.654757,38.8817081 C136.654757,37.8647205 136.018639,36.9922671 134.620068,36.9922671 L131.878222,36.9922671 L131.878222,40.8082919 Z M130.134549,35.4665839 L134.601905,35.4665839 C136.83639,35.4665839 138.50741,36.5021429 138.50741,38.6822671 C138.50741,40.1538509 137.599247,41.0804037 136.291492,41.5164286 L136.291492,41.552764 C137.834966,41.6613665 139.070472,43.0239441 139.070472,44.7502795 C139.070472,47.0575776 137.054753,48.3293168 134.547819,48.3293168 L130.134549,48.3293168 L130.134549,35.4665839 Z" id="Fill-17" fill="#EF3124"></path>
                            <path d="M148.26068,43.6242857 L145.863533,37.7193789 L145.827206,37.7193789 L143.393732,43.6242857 L148.26068,43.6242857 Z M145.136599,35.4665839 L146.717206,35.4665839 L152.220676,48.3293168 L150.185986,48.3293168 L148.896798,45.1499689 L142.775374,45.1499689 L141.504753,48.3293168 L139.470063,48.3293168 L145.136599,35.4665839 Z" id="Fill-18" fill="#EF3124"></path>
                            <polyline id="Fill-19" fill="#EF3124" points="153.419855 35.4665839 155.708023 35.4665839 162.791293 46.0401863 162.827619 46.0401863 162.827619 35.4665839 164.571293 35.4665839 164.571293 48.3293168 162.355374 48.3293168 155.199855 37.7557143 155.163528 37.7557143 155.163528 48.3293168 153.419855 48.3293168 153.419855 35.4665839"></polyline>
                            <polyline id="Fill-20" fill="#EF3124" points="167.404762 35.4665839 169.148435 35.4665839 169.148435 41.0259006 169.293741 41.0259006 174.979247 35.4665839 177.412721 35.4665839 171.200481 41.4078261 177.830476 48.3293168 175.287215 48.3293168 169.293741 41.8979503 169.148435 41.8979503 169.148435 48.3293168 167.404762 48.3293168 167.404762 35.4665839"></polyline>
                        </g>
                    </g>
                </g>
            </g>
        </g>
    </g>
</svg>